<mxfile host="www.draw.io" modified="2024-03-28T14:48:18.834Z" agent="Mozilla/5.0 (Windows NT 10.0; Win64; x64) AppleWebKit/537.36 (KHTML, like Gecko) Chrome/123.0.0.0 Safari/537.36" etag="xrcESh57oqzmXBtYg0mh" version="24.2.0" type="device">
  <diagram name="Page-1" id="ZxlwmdV9dzZsxIHtCu9o">
    <mxGraphModel dx="1301" dy="753" grid="1" gridSize="10" guides="1" tooltips="1" connect="1" arrows="1" fold="1" page="1" pageScale="1" pageWidth="827" pageHeight="1169" math="0" shadow="0">
      <root>
        <mxCell id="0" />
        <mxCell id="1" parent="0" />
        <mxCell id="4BHdDq89bDIP0e9hir1x-12" style="edgeStyle=orthogonalEdgeStyle;rounded=0;orthogonalLoop=1;jettySize=auto;html=1;exitX=0.5;exitY=1;exitDx=0;exitDy=0;entryX=0.5;entryY=0;entryDx=0;entryDy=0;" edge="1" parent="1" source="4BHdDq89bDIP0e9hir1x-2" target="4BHdDq89bDIP0e9hir1x-3">
          <mxGeometry relative="1" as="geometry" />
        </mxCell>
        <mxCell id="4BHdDq89bDIP0e9hir1x-13" style="edgeStyle=orthogonalEdgeStyle;rounded=0;orthogonalLoop=1;jettySize=auto;html=1;exitX=0.5;exitY=1;exitDx=0;exitDy=0;entryX=0.5;entryY=0;entryDx=0;entryDy=0;" edge="1" parent="1" source="4BHdDq89bDIP0e9hir1x-2" target="4BHdDq89bDIP0e9hir1x-4">
          <mxGeometry relative="1" as="geometry" />
        </mxCell>
        <mxCell id="4BHdDq89bDIP0e9hir1x-22" style="edgeStyle=orthogonalEdgeStyle;rounded=0;orthogonalLoop=1;jettySize=auto;html=1;exitX=1;exitY=0.5;exitDx=0;exitDy=0;entryX=1;entryY=0.5;entryDx=0;entryDy=0;" edge="1" parent="1" source="4BHdDq89bDIP0e9hir1x-2" target="4BHdDq89bDIP0e9hir1x-21">
          <mxGeometry relative="1" as="geometry">
            <Array as="points">
              <mxPoint x="-200" y="60" />
              <mxPoint x="-200" y="410" />
            </Array>
          </mxGeometry>
        </mxCell>
        <mxCell id="4BHdDq89bDIP0e9hir1x-2" value="&lt;b&gt;&lt;font style=&quot;font-size: 16px;&quot;&gt;Input&lt;/font&gt;&lt;/b&gt;" style="rounded=0;whiteSpace=wrap;html=1;fillColor=#f5f5f5;fontColor=#333333;strokeColor=#666666;" vertex="1" parent="1">
          <mxGeometry x="-400" y="40" width="110" height="40" as="geometry" />
        </mxCell>
        <mxCell id="4BHdDq89bDIP0e9hir1x-15" style="edgeStyle=orthogonalEdgeStyle;rounded=0;orthogonalLoop=1;jettySize=auto;html=1;exitX=0.5;exitY=1;exitDx=0;exitDy=0;entryX=0.5;entryY=0;entryDx=0;entryDy=0;" edge="1" parent="1" source="4BHdDq89bDIP0e9hir1x-3" target="4BHdDq89bDIP0e9hir1x-14">
          <mxGeometry relative="1" as="geometry" />
        </mxCell>
        <mxCell id="4BHdDq89bDIP0e9hir1x-3" value="&lt;b&gt;&lt;font style=&quot;font-size: 16px;&quot;&gt;1 * 1 Conv,&lt;/font&gt;&lt;/b&gt;&lt;div&gt;&lt;span style=&quot;font-size: 16px;&quot;&gt;&lt;b&gt;24&lt;/b&gt;&lt;/span&gt;&lt;/div&gt;" style="rounded=0;whiteSpace=wrap;html=1;fillColor=#f8cecc;strokeColor=#b85450;" vertex="1" parent="1">
          <mxGeometry x="-500" y="120" width="110" height="40" as="geometry" />
        </mxCell>
        <mxCell id="4BHdDq89bDIP0e9hir1x-7" value="" style="edgeStyle=orthogonalEdgeStyle;rounded=0;orthogonalLoop=1;jettySize=auto;html=1;" edge="1" parent="1" source="4BHdDq89bDIP0e9hir1x-4" target="4BHdDq89bDIP0e9hir1x-6">
          <mxGeometry relative="1" as="geometry" />
        </mxCell>
        <mxCell id="4BHdDq89bDIP0e9hir1x-4" value="&lt;span style=&quot;font-size: 16px;&quot;&gt;&lt;b&gt;1 * 1 Conv, 16&lt;/b&gt;&lt;/span&gt;" style="rounded=0;whiteSpace=wrap;html=1;fillColor=#f8cecc;strokeColor=#b85450;" vertex="1" parent="1">
          <mxGeometry x="-320" y="120" width="110" height="40" as="geometry" />
        </mxCell>
        <mxCell id="4BHdDq89bDIP0e9hir1x-9" value="" style="edgeStyle=orthogonalEdgeStyle;rounded=0;orthogonalLoop=1;jettySize=auto;html=1;" edge="1" parent="1" source="4BHdDq89bDIP0e9hir1x-6" target="4BHdDq89bDIP0e9hir1x-8">
          <mxGeometry relative="1" as="geometry" />
        </mxCell>
        <mxCell id="4BHdDq89bDIP0e9hir1x-6" value="&lt;span style=&quot;font-size: 16px;&quot;&gt;&lt;b&gt;1 * 7 Conv, 20&lt;/b&gt;&lt;/span&gt;" style="rounded=0;whiteSpace=wrap;html=1;fillColor=#f8cecc;strokeColor=#b85450;" vertex="1" parent="1">
          <mxGeometry x="-320" y="180" width="110" height="40" as="geometry" />
        </mxCell>
        <mxCell id="4BHdDq89bDIP0e9hir1x-11" value="" style="edgeStyle=orthogonalEdgeStyle;rounded=0;orthogonalLoop=1;jettySize=auto;html=1;" edge="1" parent="1" source="4BHdDq89bDIP0e9hir1x-8" target="4BHdDq89bDIP0e9hir1x-10">
          <mxGeometry relative="1" as="geometry" />
        </mxCell>
        <mxCell id="4BHdDq89bDIP0e9hir1x-8" value="&lt;span style=&quot;font-size: 16px;&quot;&gt;&lt;b&gt;7 * 1 Conv, 24&lt;/b&gt;&lt;/span&gt;" style="rounded=0;whiteSpace=wrap;html=1;fillColor=#f8cecc;strokeColor=#b85450;" vertex="1" parent="1">
          <mxGeometry x="-320" y="240" width="110" height="40" as="geometry" />
        </mxCell>
        <mxCell id="4BHdDq89bDIP0e9hir1x-16" style="edgeStyle=orthogonalEdgeStyle;rounded=0;orthogonalLoop=1;jettySize=auto;html=1;exitX=0;exitY=0.5;exitDx=0;exitDy=0;entryX=1;entryY=0.5;entryDx=0;entryDy=0;" edge="1" parent="1" source="4BHdDq89bDIP0e9hir1x-10" target="4BHdDq89bDIP0e9hir1x-14">
          <mxGeometry relative="1" as="geometry" />
        </mxCell>
        <mxCell id="4BHdDq89bDIP0e9hir1x-10" value="&lt;span style=&quot;font-size: 16px;&quot;&gt;&lt;b&gt;1 * 1 Conv, 24&lt;/b&gt;&lt;/span&gt;" style="rounded=0;whiteSpace=wrap;html=1;fillColor=#f8cecc;strokeColor=#b85450;" vertex="1" parent="1">
          <mxGeometry x="-320" y="310" width="110" height="40" as="geometry" />
        </mxCell>
        <mxCell id="4BHdDq89bDIP0e9hir1x-19" value="" style="edgeStyle=orthogonalEdgeStyle;rounded=0;orthogonalLoop=1;jettySize=auto;html=1;" edge="1" parent="1" source="4BHdDq89bDIP0e9hir1x-14" target="4BHdDq89bDIP0e9hir1x-18">
          <mxGeometry relative="1" as="geometry" />
        </mxCell>
        <mxCell id="4BHdDq89bDIP0e9hir1x-14" value="&lt;b&gt;&lt;font style=&quot;font-size: 16px;&quot;&gt;Concatenate&lt;/font&gt;&lt;/b&gt;" style="rounded=0;whiteSpace=wrap;html=1;fillColor=#f5f5f5;fontColor=#333333;strokeColor=#666666;" vertex="1" parent="1">
          <mxGeometry x="-500" y="310" width="110" height="40" as="geometry" />
        </mxCell>
        <mxCell id="4BHdDq89bDIP0e9hir1x-24" style="edgeStyle=orthogonalEdgeStyle;rounded=0;orthogonalLoop=1;jettySize=auto;html=1;exitX=0.5;exitY=1;exitDx=0;exitDy=0;entryX=0.5;entryY=0;entryDx=0;entryDy=0;" edge="1" parent="1" source="4BHdDq89bDIP0e9hir1x-18" target="4BHdDq89bDIP0e9hir1x-23">
          <mxGeometry relative="1" as="geometry" />
        </mxCell>
        <mxCell id="4BHdDq89bDIP0e9hir1x-18" value="&lt;span style=&quot;font-size: 16px;&quot;&gt;&lt;b&gt;1 * 1 Conv, 144&lt;/b&gt;&lt;/span&gt;" style="rounded=0;whiteSpace=wrap;html=1;fillColor=#f8cecc;strokeColor=#b85450;" vertex="1" parent="1">
          <mxGeometry x="-500" y="390" width="110" height="40" as="geometry" />
        </mxCell>
        <mxCell id="4BHdDq89bDIP0e9hir1x-25" style="edgeStyle=orthogonalEdgeStyle;rounded=0;orthogonalLoop=1;jettySize=auto;html=1;exitX=0.5;exitY=1;exitDx=0;exitDy=0;entryX=0.5;entryY=0;entryDx=0;entryDy=0;" edge="1" parent="1" source="4BHdDq89bDIP0e9hir1x-21" target="4BHdDq89bDIP0e9hir1x-23">
          <mxGeometry relative="1" as="geometry">
            <mxPoint x="-300" y="460" as="targetPoint" />
          </mxGeometry>
        </mxCell>
        <mxCell id="4BHdDq89bDIP0e9hir1x-21" value="&lt;span style=&quot;font-size: 16px;&quot;&gt;&lt;b&gt;1 * 1 Conv, 144&lt;/b&gt;&lt;/span&gt;" style="rounded=0;whiteSpace=wrap;html=1;fillColor=#f8cecc;strokeColor=#b85450;" vertex="1" parent="1">
          <mxGeometry x="-360" y="390" width="110" height="40" as="geometry" />
        </mxCell>
        <mxCell id="4BHdDq89bDIP0e9hir1x-27" value="" style="edgeStyle=orthogonalEdgeStyle;rounded=0;orthogonalLoop=1;jettySize=auto;html=1;" edge="1" parent="1" source="4BHdDq89bDIP0e9hir1x-23" target="4BHdDq89bDIP0e9hir1x-26">
          <mxGeometry relative="1" as="geometry" />
        </mxCell>
        <mxCell id="4BHdDq89bDIP0e9hir1x-23" value="&lt;b&gt;&lt;font style=&quot;font-size: 16px;&quot;&gt;Add&lt;/font&gt;&lt;/b&gt;" style="rounded=0;whiteSpace=wrap;html=1;fillColor=#f5f5f5;fontColor=#333333;strokeColor=#666666;" vertex="1" parent="1">
          <mxGeometry x="-430" y="470" width="110" height="40" as="geometry" />
        </mxCell>
        <mxCell id="4BHdDq89bDIP0e9hir1x-26" value="&lt;b&gt;&lt;font style=&quot;font-size: 16px;&quot;&gt;ReLU&lt;/font&gt;&lt;/b&gt;" style="rounded=0;whiteSpace=wrap;html=1;fillColor=#dae8fc;strokeColor=#6c8ebf;" vertex="1" parent="1">
          <mxGeometry x="-430" y="545" width="110" height="40" as="geometry" />
        </mxCell>
      </root>
    </mxGraphModel>
  </diagram>
</mxfile>
